<?xml version="1.0" encoding="UTF-8" standalone="no"?>
<!DOCTYPE svg PUBLIC "-//W3C//DTD SVG 1.1//EN"
 "http://www.w3.org/Graphics/SVG/1.1/DTD/svg11.dtd">
<!-- Generated by graphviz version 2.43.0 (0)
 -->
<!-- Title: G Pages: 1 -->
<svg width="2294pt" height="548pt"
 viewBox="0.00 0.00 2293.93 548.00" xmlns="http://www.w3.org/2000/svg" xmlns:xlink="http://www.w3.org/1999/xlink">
<g id="graph0" class="graph" transform="scale(1 1) rotate(0) translate(4 544)">
<title>G</title>
<polygon fill="white" stroke="transparent" points="-4,4 -4,-544 2289.93,-544 2289.93,4 -4,4"/>
<!-- n0 -->
<g id="node1" class="node">
<title>n0</title>
<polygon fill="none" stroke="black" points="779.43,-540 688.43,-540 688.43,-504 779.43,-504 779.43,-540"/>
<text text-anchor="middle" x="733.93" y="-518.3" font-family="Times,serif" font-size="14.00">art&#45;shared</text>
</g>
<!-- n1 -->
<g id="node2" class="node">
<title>n1</title>
<polygon fill="none" stroke="black" points="724.93,-468 670.93,-468 670.93,-432 724.93,-432 724.93,-468"/>
<text text-anchor="middle" x="697.93" y="-446.3" font-family="Times,serif" font-size="14.00">art&#45;js</text>
</g>
<!-- n1&#45;&gt;n0 -->
<g id="edge1" class="edge">
<title>n1&#45;&gt;n0</title>
<path fill="none" stroke="black" d="M706.82,-468.3C710.92,-476.27 715.87,-485.9 720.42,-494.74"/>
<polygon fill="black" stroke="black" points="717.44,-496.6 725.13,-503.9 723.67,-493.4 717.44,-496.6"/>
</g>
<!-- n2 -->
<g id="node3" class="node">
<title>n2</title>
<polygon fill="none" stroke="black" points="2169.93,-252 2065.93,-252 2065.93,-216 2169.93,-216 2169.93,-252"/>
<text text-anchor="middle" x="2117.93" y="-230.3" font-family="Times,serif" font-size="14.00">architecture</text>
</g>
<!-- n3 -->
<g id="node4" class="node">
<title>n3</title>
<polygon fill="none" stroke="black" points="2167.93,-324 2067.93,-324 2067.93,-288 2167.93,-288 2167.93,-324"/>
<text text-anchor="middle" x="2117.93" y="-302.3" font-family="Times,serif" font-size="14.00">bridges_tsp</text>
</g>
<!-- n2&#45;&gt;n3 -->
<g id="edge2" class="edge">
<title>n2&#45;&gt;n3</title>
<path fill="none" stroke="black" d="M2117.93,-252.3C2117.93,-260.02 2117.93,-269.29 2117.93,-277.89"/>
<polygon fill="black" stroke="black" points="2114.43,-277.9 2117.93,-287.9 2121.43,-277.9 2114.43,-277.9"/>
</g>
<!-- n4 -->
<g id="node5" class="node">
<title>n4</title>
<polygon fill="none" stroke="black" points="2285.93,-324 2185.93,-324 2185.93,-288 2285.93,-288 2285.93,-324"/>
<text text-anchor="middle" x="2235.93" y="-302.3" font-family="Times,serif" font-size="14.00">bridges_tcp</text>
</g>
<!-- n2&#45;&gt;n4 -->
<g id="edge3" class="edge">
<title>n2&#45;&gt;n4</title>
<path fill="none" stroke="black" d="M2146.79,-252.12C2162.22,-261.28 2181.41,-272.66 2198.02,-282.52"/>
<polygon fill="black" stroke="black" points="2196.56,-285.72 2206.95,-287.81 2200.13,-279.7 2196.56,-285.72"/>
</g>
<!-- n5 -->
<g id="node6" class="node">
<title>n5</title>
<polygon fill="none" stroke="black" points="2049.93,-324 1957.93,-324 1957.93,-288 2049.93,-288 2049.93,-324"/>
<text text-anchor="middle" x="2003.93" y="-302.3" font-family="Times,serif" font-size="14.00">bridges_fp</text>
</g>
<!-- n2&#45;&gt;n5 -->
<g id="edge4" class="edge">
<title>n2&#45;&gt;n5</title>
<path fill="none" stroke="black" d="M2090.04,-252.12C2075.13,-261.28 2056.6,-272.66 2040.54,-282.52"/>
<polygon fill="black" stroke="black" points="2038.61,-279.59 2031.92,-287.81 2042.27,-285.56 2038.61,-279.59"/>
</g>
<!-- n22 -->
<g id="node23" class="node">
<title>n22</title>
<polygon fill="none" stroke="black" points="1466.43,-396 1391.43,-396 1391.43,-360 1466.43,-360 1466.43,-396"/>
<text text-anchor="middle" x="1428.93" y="-374.3" font-family="Times,serif" font-size="14.00">apis_tsp</text>
</g>
<!-- n3&#45;&gt;n22 -->
<g id="edge5" class="edge">
<title>n3&#45;&gt;n22</title>
<path fill="none" stroke="black" d="M2067.88,-322.21C2064.87,-322.88 2061.86,-323.48 2058.93,-324 1823.76,-365.29 1759.88,-330.71 1522.93,-360 1507.81,-361.87 1491.45,-364.58 1476.68,-367.3"/>
<polygon fill="black" stroke="black" points="1475.92,-363.88 1466.74,-369.16 1477.21,-370.76 1475.92,-363.88"/>
</g>
<!-- n23 -->
<g id="node24" class="node">
<title>n23</title>
<polygon fill="none" stroke="black" points="1606.43,-396 1531.43,-396 1531.43,-360 1606.43,-360 1606.43,-396"/>
<text text-anchor="middle" x="1568.93" y="-374.3" font-family="Times,serif" font-size="14.00">apis_tcp</text>
</g>
<!-- n4&#45;&gt;n23 -->
<g id="edge6" class="edge">
<title>n4&#45;&gt;n23</title>
<path fill="none" stroke="black" d="M2185.87,-322.14C2182.86,-322.83 2179.86,-323.45 2176.93,-324 1970.71,-362.32 1719.88,-373.07 1616.72,-375.97"/>
<polygon fill="black" stroke="black" points="1616.53,-372.48 1606.63,-376.24 1616.72,-379.47 1616.53,-372.48"/>
</g>
<!-- n24 -->
<g id="node25" class="node">
<title>n24</title>
<polygon fill="none" stroke="black" points="1334.43,-396 1267.43,-396 1267.43,-360 1334.43,-360 1334.43,-396"/>
<text text-anchor="middle" x="1300.93" y="-374.3" font-family="Times,serif" font-size="14.00">apis_fp</text>
</g>
<!-- n5&#45;&gt;n24 -->
<g id="edge7" class="edge">
<title>n5&#45;&gt;n24</title>
<path fill="none" stroke="black" d="M1957.75,-309.05C1854.35,-314.07 1596.53,-328.86 1382.93,-360 1370.45,-361.82 1357.02,-364.36 1344.71,-366.92"/>
<polygon fill="black" stroke="black" points="1343.72,-363.55 1334.68,-369.06 1345.19,-370.39 1343.72,-363.55"/>
</g>
<!-- n6 -->
<g id="node7" class="node">
<title>n6</title>
<polygon fill="none" stroke="black" points="1389.93,-468 1335.93,-468 1335.93,-432 1389.93,-432 1389.93,-468"/>
<text text-anchor="middle" x="1362.93" y="-446.3" font-family="Times,serif" font-size="14.00">data</text>
</g>
<!-- n6&#45;&gt;n0 -->
<g id="edge8" class="edge">
<title>n6&#45;&gt;n0</title>
<path fill="none" stroke="black" d="M1335.9,-454.01C1240.77,-464.59 920.16,-500.27 789.77,-514.79"/>
<polygon fill="black" stroke="black" points="789.16,-511.33 779.6,-515.92 789.93,-518.29 789.16,-511.33"/>
</g>
<!-- n7 -->
<g id="node8" class="node">
<title>n7</title>
<polygon fill="none" stroke="black" points="1395.43,-324 1330.43,-324 1330.43,-288 1395.43,-288 1395.43,-324"/>
<text text-anchor="middle" x="1362.93" y="-302.3" font-family="Times,serif" font-size="14.00">library</text>
</g>
<!-- n7&#45;&gt;n6 -->
<g id="edge9" class="edge">
<title>n7&#45;&gt;n6</title>
<path fill="none" stroke="black" d="M1362.93,-324.13C1362.93,-348.33 1362.93,-392.79 1362.93,-421.61"/>
<polygon fill="black" stroke="black" points="1359.43,-421.81 1362.93,-431.81 1366.43,-421.81 1359.43,-421.81"/>
</g>
<!-- n8 -->
<g id="node9" class="node">
<title>n8</title>
<polygon fill="none" stroke="black" points="2017.93,-180 1923.93,-180 1923.93,-144 2017.93,-144 2017.93,-180"/>
<text text-anchor="middle" x="1970.93" y="-158.3" font-family="Times,serif" font-size="14.00">schedulers</text>
</g>
<!-- n8&#45;&gt;n2 -->
<g id="edge10" class="edge">
<title>n8&#45;&gt;n2</title>
<path fill="none" stroke="black" d="M2006.89,-180.12C2026.8,-189.61 2051.75,-201.49 2072.95,-211.58"/>
<polygon fill="black" stroke="black" points="2071.55,-214.79 2082.08,-215.93 2074.56,-208.47 2071.55,-214.79"/>
</g>
<!-- n9 -->
<g id="node10" class="node">
<title>n9</title>
<polygon fill="none" stroke="black" points="1288.93,-180 1234.93,-180 1234.93,-144 1288.93,-144 1288.93,-180"/>
<text text-anchor="middle" x="1261.93" y="-158.3" font-family="Times,serif" font-size="14.00">app</text>
</g>
<!-- n10 -->
<g id="node11" class="node">
<title>n10</title>
<polygon fill="none" stroke="black" points="1456.93,-252 1268.93,-252 1268.93,-216 1456.93,-216 1456.93,-252"/>
<text text-anchor="middle" x="1362.93" y="-230.3" font-family="Times,serif" font-size="14.00">components_tsp_shared</text>
</g>
<!-- n9&#45;&gt;n10 -->
<g id="edge11" class="edge">
<title>n9&#45;&gt;n10</title>
<path fill="none" stroke="black" d="M1286.63,-180.12C1299.59,-189.11 1315.65,-200.24 1329.69,-209.97"/>
<polygon fill="black" stroke="black" points="1327.91,-212.99 1338.12,-215.81 1331.9,-207.24 1327.91,-212.99"/>
</g>
<!-- n11 -->
<g id="node12" class="node">
<title>n11</title>
<polygon fill="none" stroke="black" points="1662.93,-252 1474.93,-252 1474.93,-216 1662.93,-216 1662.93,-252"/>
<text text-anchor="middle" x="1568.93" y="-230.3" font-family="Times,serif" font-size="14.00">components_tcp_shared</text>
</g>
<!-- n9&#45;&gt;n11 -->
<g id="edge12" class="edge">
<title>n9&#45;&gt;n11</title>
<path fill="none" stroke="black" d="M1289.16,-176.71C1292.08,-177.93 1295.04,-179.05 1297.93,-180 1328.62,-190.08 1402.12,-204.23 1464.84,-215.38"/>
<polygon fill="black" stroke="black" points="1464.35,-218.85 1474.81,-217.15 1465.57,-211.96 1464.35,-218.85"/>
</g>
<!-- n12 -->
<g id="node13" class="node">
<title>n12</title>
<polygon fill="none" stroke="black" points="1250.43,-252 1071.43,-252 1071.43,-216 1250.43,-216 1250.43,-252"/>
<text text-anchor="middle" x="1160.93" y="-230.3" font-family="Times,serif" font-size="14.00">components_fp_shared</text>
</g>
<!-- n9&#45;&gt;n12 -->
<g id="edge13" class="edge">
<title>n9&#45;&gt;n12</title>
<path fill="none" stroke="black" d="M1237.22,-180.12C1224.26,-189.11 1208.2,-200.24 1194.16,-209.97"/>
<polygon fill="black" stroke="black" points="1191.95,-207.24 1185.73,-215.81 1195.94,-212.99 1191.95,-207.24"/>
</g>
<!-- n10&#45;&gt;n7 -->
<g id="edge15" class="edge">
<title>n10&#45;&gt;n7</title>
<path fill="none" stroke="black" d="M1362.93,-252.3C1362.93,-260.02 1362.93,-269.29 1362.93,-277.89"/>
<polygon fill="black" stroke="black" points="1359.43,-277.9 1362.93,-287.9 1366.43,-277.9 1359.43,-277.9"/>
</g>
<!-- n10&#45;&gt;n22 -->
<g id="edge14" class="edge">
<title>n10&#45;&gt;n22</title>
<path fill="none" stroke="black" d="M1379.68,-252.37C1388.32,-262.16 1398.37,-275 1404.93,-288 1414.8,-307.59 1420.98,-331.72 1424.59,-349.92"/>
<polygon fill="black" stroke="black" points="1421.17,-350.66 1426.43,-359.86 1428.05,-349.39 1421.17,-350.66"/>
</g>
<!-- n11&#45;&gt;n7 -->
<g id="edge17" class="edge">
<title>n11&#45;&gt;n7</title>
<path fill="none" stroke="black" d="M1518.8,-252.03C1484.04,-263.84 1438.27,-279.4 1405.33,-290.59"/>
<polygon fill="black" stroke="black" points="1403.89,-287.38 1395.55,-293.92 1406.14,-294.01 1403.89,-287.38"/>
</g>
<!-- n11&#45;&gt;n23 -->
<g id="edge16" class="edge">
<title>n11&#45;&gt;n23</title>
<path fill="none" stroke="black" d="M1568.93,-252.13C1568.93,-276.33 1568.93,-320.79 1568.93,-349.61"/>
<polygon fill="black" stroke="black" points="1565.43,-349.81 1568.93,-359.81 1572.43,-349.81 1565.43,-349.81"/>
</g>
<!-- n12&#45;&gt;n7 -->
<g id="edge19" class="edge">
<title>n12&#45;&gt;n7</title>
<path fill="none" stroke="black" d="M1210.08,-252.03C1243.95,-263.77 1288.49,-279.2 1320.74,-290.38"/>
<polygon fill="black" stroke="black" points="1319.74,-293.74 1330.33,-293.7 1322.03,-287.12 1319.74,-293.74"/>
</g>
<!-- n12&#45;&gt;n24 -->
<g id="edge18" class="edge">
<title>n12&#45;&gt;n24</title>
<path fill="none" stroke="black" d="M1177.81,-252.13C1202.51,-277.18 1248.62,-323.95 1276.86,-352.59"/>
<polygon fill="black" stroke="black" points="1274.46,-355.15 1283.98,-359.81 1279.45,-350.23 1274.46,-355.15"/>
</g>
<!-- n13 -->
<g id="node14" class="node">
<title>n13</title>
<polygon fill="none" stroke="black" points="1299.41,-108 1224.44,-108 1197.74,-72 1326.11,-72 1299.41,-108"/>
<text text-anchor="middle" x="1261.93" y="-86.3" font-family="Times,serif" font-size="14.00">appJvm</text>
</g>
<!-- n13&#45;&gt;n8 -->
<g id="edge21" class="edge">
<title>n13&#45;&gt;n8</title>
<path fill="none" stroke="black" d="M1311.97,-91.43C1420.44,-93.15 1685.2,-101.54 1913.91,-144.05"/>
<polygon fill="black" stroke="black" points="1913.27,-147.49 1923.75,-145.9 1914.57,-140.61 1913.27,-147.49"/>
</g>
<!-- n13&#45;&gt;n9 -->
<g id="edge20" class="edge">
<title>n13&#45;&gt;n9</title>
<path fill="none" stroke="black" d="M1261.93,-108.3C1261.93,-116.02 1261.93,-125.29 1261.93,-133.89"/>
<polygon fill="black" stroke="black" points="1258.43,-133.9 1261.93,-143.9 1265.43,-133.9 1258.43,-133.9"/>
</g>
<!-- n14 -->
<g id="node15" class="node">
<title>n14</title>
<polygon fill="none" stroke="black" points="1153.59,-180 976.26,-180 913.1,-144 1216.75,-144 1153.59,-180"/>
<text text-anchor="middle" x="1064.93" y="-158.3" font-family="Times,serif" font-size="14.00">components_tsp_jvm</text>
</g>
<!-- n13&#45;&gt;n14 -->
<g id="edge22" class="edge">
<title>n13&#45;&gt;n14</title>
<path fill="none" stroke="black" d="M1222.06,-105.17C1193.53,-115.3 1154.68,-129.11 1122.75,-140.45"/>
<polygon fill="black" stroke="black" points="1121.34,-137.24 1113.09,-143.89 1123.68,-143.84 1121.34,-137.24"/>
</g>
<!-- n15 -->
<g id="node16" class="node">
<title>n15</title>
<polygon fill="none" stroke="black" points="1842.59,-180 1665.26,-180 1602.1,-144 1905.75,-144 1842.59,-180"/>
<text text-anchor="middle" x="1753.93" y="-158.3" font-family="Times,serif" font-size="14.00">components_tcp_jvm</text>
</g>
<!-- n13&#45;&gt;n15 -->
<g id="edge23" class="edge">
<title>n13&#45;&gt;n15</title>
<path fill="none" stroke="black" d="M1307.33,-97.46C1378.71,-107.62 1519.82,-127.69 1624.41,-142.57"/>
<polygon fill="black" stroke="black" points="1624.02,-146.05 1634.41,-144 1625.01,-139.12 1624.02,-146.05"/>
</g>
<!-- n16 -->
<g id="node17" class="node">
<title>n16</title>
<polygon fill="none" stroke="black" points="540.09,-180 371.76,-180 311.81,-144 600.04,-144 540.09,-180"/>
<text text-anchor="middle" x="455.93" y="-158.3" font-family="Times,serif" font-size="14.00">components_fp_jvm</text>
</g>
<!-- n13&#45;&gt;n16 -->
<g id="edge24" class="edge">
<title>n13&#45;&gt;n16</title>
<path fill="none" stroke="black" d="M1213.96,-94.4C1105.87,-102.18 835.08,-122.26 608.93,-144 608.82,-144.01 608.71,-144.02 608.6,-144.03"/>
<polygon fill="black" stroke="black" points="608.05,-140.57 598.43,-145.03 608.73,-147.54 608.05,-140.57"/>
</g>
<!-- n14&#45;&gt;n10 -->
<g id="edge25" class="edge">
<title>n14&#45;&gt;n10</title>
<path fill="none" stroke="black" d="M1137.44,-180.03C1180.61,-190.17 1235.52,-203.07 1280.35,-213.6"/>
<polygon fill="black" stroke="black" points="1279.81,-217.07 1290.34,-215.95 1281.41,-210.26 1279.81,-217.07"/>
</g>
<!-- n15&#45;&gt;n11 -->
<g id="edge26" class="edge">
<title>n15&#45;&gt;n11</title>
<path fill="none" stroke="black" d="M1708.67,-180.12C1682.93,-189.86 1650.52,-202.13 1623.39,-212.39"/>
<polygon fill="black" stroke="black" points="1622.15,-209.12 1614.03,-215.93 1624.63,-215.67 1622.15,-209.12"/>
</g>
<!-- n16&#45;&gt;n12 -->
<g id="edge27" class="edge">
<title>n16&#45;&gt;n12</title>
<path fill="none" stroke="black" d="M550.58,-173.74C569.88,-175.87 590.05,-178.05 608.93,-180 766.79,-196.35 950.24,-213.62 1060.87,-223.85"/>
<polygon fill="black" stroke="black" points="1060.73,-227.35 1071.01,-224.78 1061.37,-220.38 1060.73,-227.35"/>
</g>
<!-- n17 -->
<g id="node18" class="node">
<title>n17</title>
<polygon fill="none" stroke="black" points="912.88,-72 972.97,-72 994.37,-108 891.48,-108 912.88,-72"/>
<text text-anchor="middle" x="942.93" y="-86.3" font-family="Times,serif" font-size="14.00">appJs</text>
</g>
<!-- n17&#45;&gt;n1 -->
<g id="edge29" class="edge">
<title>n17&#45;&gt;n1</title>
<path fill="none" stroke="black" d="M900.88,-92.01C725,-96.42 55.7,-115.03 21.93,-144 -8.78,-170.33 2.93,-192.55 2.93,-233 2.93,-233 2.93,-233 2.93,-307 2.93,-442.46 516.18,-449.97 660.55,-449.4"/>
<polygon fill="black" stroke="black" points="660.7,-452.9 670.68,-449.35 660.66,-445.9 660.7,-452.9"/>
</g>
<!-- n17&#45;&gt;n8 -->
<g id="edge30" class="edge">
<title>n17&#45;&gt;n8</title>
<path fill="none" stroke="black" d="M986.46,-94.27C1035.61,-97.89 1117.98,-103.79 1188.93,-108 1508.11,-126.94 1594.86,-89.45 1913.78,-144.07"/>
<polygon fill="black" stroke="black" points="1913.32,-147.54 1923.77,-145.8 1914.51,-140.64 1913.32,-147.54"/>
</g>
<!-- n17&#45;&gt;n9 -->
<g id="edge28" class="edge">
<title>n17&#45;&gt;n9</title>
<path fill="none" stroke="black" d="M987.43,-95.76C1041.93,-102.37 1136.92,-116.4 1225.09,-144.17"/>
<polygon fill="black" stroke="black" points="1224.11,-147.53 1234.7,-147.26 1226.25,-140.87 1224.11,-147.53"/>
</g>
<!-- n18 -->
<g id="node19" class="node">
<title>n18</title>
<polygon fill="none" stroke="black" points="675.99,-144 837.86,-144 895.51,-180 618.34,-180 675.99,-144"/>
<text text-anchor="middle" x="756.93" y="-158.3" font-family="Times,serif" font-size="14.00">components_tsp_js</text>
</g>
<!-- n17&#45;&gt;n18 -->
<g id="edge31" class="edge">
<title>n17&#45;&gt;n18</title>
<path fill="none" stroke="black" d="M897.42,-108.12C871.54,-117.86 838.96,-130.13 811.68,-140.39"/>
<polygon fill="black" stroke="black" points="810.4,-137.13 802.28,-143.93 812.87,-143.69 810.4,-137.13"/>
</g>
<!-- n19 -->
<g id="node20" class="node">
<title>n19</title>
<polygon fill="none" stroke="black" points="1364.99,-144 1526.86,-144 1584.51,-180 1307.34,-180 1364.99,-144"/>
<text text-anchor="middle" x="1445.93" y="-158.3" font-family="Times,serif" font-size="14.00">components_tcp_js</text>
</g>
<!-- n17&#45;&gt;n19 -->
<g id="edge32" class="edge">
<title>n17&#45;&gt;n19</title>
<path fill="none" stroke="black" d="M988.01,-97.27C1068.45,-108.47 1238.45,-132.13 1347.17,-147.26"/>
<polygon fill="black" stroke="black" points="1346.78,-150.74 1357.17,-148.65 1347.74,-143.8 1346.78,-150.74"/>
</g>
<!-- n20 -->
<g id="node21" class="node">
<title>n20</title>
<polygon fill="none" stroke="black" points="85.2,-144 238.65,-144 293.3,-180 30.55,-180 85.2,-144"/>
<text text-anchor="middle" x="161.93" y="-158.3" font-family="Times,serif" font-size="14.00">components_fp_js</text>
</g>
<!-- n17&#45;&gt;n20 -->
<g id="edge33" class="edge">
<title>n17&#45;&gt;n20</title>
<path fill="none" stroke="black" d="M899.42,-94.04C795.93,-101.39 526.98,-121.22 302.93,-144 288.48,-145.47 273.21,-147.16 258.27,-148.9"/>
<polygon fill="black" stroke="black" points="257.52,-145.46 247.99,-150.1 258.33,-152.41 257.52,-145.46"/>
</g>
<!-- n18&#45;&gt;n10 -->
<g id="edge34" class="edge">
<title>n18&#45;&gt;n10</title>
<path fill="none" stroke="black" d="M893.85,-178.9C897.24,-179.27 900.6,-179.64 903.93,-180 1058.79,-196.78 1100.58,-195.12 1258.58,-215.87"/>
<polygon fill="black" stroke="black" points="1258.29,-219.36 1268.66,-217.2 1259.21,-212.42 1258.29,-219.36"/>
</g>
<!-- n19&#45;&gt;n11 -->
<g id="edge35" class="edge">
<title>n19&#45;&gt;n11</title>
<path fill="none" stroke="black" d="M1476.01,-180.12C1492.25,-189.36 1512.47,-200.87 1529.9,-210.79"/>
<polygon fill="black" stroke="black" points="1528.3,-213.91 1538.72,-215.81 1531.76,-207.82 1528.3,-213.91"/>
</g>
<!-- n20&#45;&gt;n12 -->
<g id="edge36" class="edge">
<title>n20&#45;&gt;n12</title>
<path fill="none" stroke="black" d="M291.74,-178.94C295.51,-179.31 299.24,-179.66 302.93,-180 576.7,-204.94 900.72,-221.43 1060.93,-228.72"/>
<polygon fill="black" stroke="black" points="1061.09,-232.23 1071.24,-229.18 1061.41,-225.24 1061.09,-232.23"/>
</g>
<!-- n21 -->
<g id="node22" class="node">
<title>n21</title>
<polygon fill="none" stroke="black" points="1239.51,-36 1192.34,-36 1175.54,0 1256.31,0 1239.51,-36"/>
<text text-anchor="middle" x="1215.93" y="-14.3" font-family="Times,serif" font-size="14.00">test</text>
</g>
<!-- n21&#45;&gt;n13 -->
<g id="edge37" class="edge">
<title>n21&#45;&gt;n13</title>
<path fill="none" stroke="black" d="M1227.3,-36.3C1232.64,-44.44 1239.13,-54.31 1245.04,-63.3"/>
<polygon fill="black" stroke="black" points="1242.27,-65.46 1250.69,-71.9 1248.12,-61.62 1242.27,-65.46"/>
</g>
<!-- n22&#45;&gt;n6 -->
<g id="edge38" class="edge">
<title>n22&#45;&gt;n6</title>
<path fill="none" stroke="black" d="M1412.61,-396.3C1404.62,-404.78 1394.85,-415.14 1386.1,-424.42"/>
<polygon fill="black" stroke="black" points="1383.37,-422.22 1379.05,-431.9 1388.46,-427.02 1383.37,-422.22"/>
</g>
<!-- n23&#45;&gt;n6 -->
<g id="edge39" class="edge">
<title>n23&#45;&gt;n6</title>
<path fill="none" stroke="black" d="M1531.14,-391.84C1493.77,-404.54 1436.94,-423.85 1399.86,-436.45"/>
<polygon fill="black" stroke="black" points="1398.3,-433.28 1389.96,-439.81 1400.56,-439.91 1398.3,-433.28"/>
</g>
<!-- n24&#45;&gt;n6 -->
<g id="edge40" class="edge">
<title>n24&#45;&gt;n6</title>
<path fill="none" stroke="black" d="M1316.25,-396.3C1323.68,-404.7 1332.75,-414.93 1340.91,-424.14"/>
<polygon fill="black" stroke="black" points="1338.53,-426.73 1347.78,-431.9 1343.77,-422.09 1338.53,-426.73"/>
</g>
<!-- n25 -->
<g id="node26" class="node">
<title>n25</title>
<polygon fill="none" stroke="black" points="1329.28,-36 1288.57,-36 1274.07,0 1343.78,0 1329.28,-36"/>
<text text-anchor="middle" x="1308.93" y="-14.3" font-family="Times,serif" font-size="14.00">nix</text>
</g>
<!-- n25&#45;&gt;n13 -->
<g id="edge41" class="edge">
<title>n25&#45;&gt;n13</title>
<path fill="none" stroke="black" d="M1297.31,-36.3C1291.79,-44.53 1285.08,-54.52 1278.99,-63.58"/>
<polygon fill="black" stroke="black" points="1276.08,-61.64 1273.41,-71.9 1281.89,-65.54 1276.08,-61.64"/>
</g>
<!-- n26 -->
<g id="node27" class="node">
<title>n26</title>
<polygon fill="none" stroke="black" points="2162.15,-108 2081.7,-108 2053.05,-72 2190.8,-72 2162.15,-108"/>
<text text-anchor="middle" x="2121.93" y="-86.3" font-family="Times,serif" font-size="14.00">seL4Nix</text>
</g>
<!-- n26&#45;&gt;n3 -->
<g id="edge42" class="edge">
<title>n26&#45;&gt;n3</title>
<path fill="none" stroke="black" d="M2144.99,-108.04C2155.76,-117.36 2167.58,-129.89 2173.93,-144 2193.63,-187.82 2198.86,-208.28 2178.93,-252 2173.7,-263.47 2164.62,-273.42 2155.05,-281.5"/>
<polygon fill="black" stroke="black" points="2152.67,-278.91 2146.97,-287.84 2156.99,-284.42 2152.67,-278.91"/>
</g>
<!-- n26&#45;&gt;n4 -->
<g id="edge43" class="edge">
<title>n26&#45;&gt;n4</title>
<path fill="none" stroke="black" d="M2154.28,-108.08C2168.36,-117.03 2183.91,-129.22 2193.93,-144 2221.86,-185.21 2231.22,-243.9 2234.35,-277.86"/>
<polygon fill="black" stroke="black" points="2230.87,-278.28 2235.16,-287.97 2237.85,-277.72 2230.87,-278.28"/>
</g>
<!-- n26&#45;&gt;n5 -->
<g id="edge44" class="edge">
<title>n26&#45;&gt;n5</title>
<path fill="none" stroke="black" d="M2126.75,-108.07C2131.08,-127.04 2134.95,-157.9 2121.93,-180 2105.16,-208.45 2080.64,-193.02 2056.93,-216 2038.56,-233.8 2024.24,-259.29 2015.14,-278.43"/>
<polygon fill="black" stroke="black" points="2011.84,-277.24 2010.87,-287.79 2018.21,-280.15 2011.84,-277.24"/>
</g>
<!-- n26&#45;&gt;n9 -->
<g id="edge48" class="edge">
<title>n26&#45;&gt;n9</title>
<path fill="none" stroke="black" d="M2068.63,-91.82C1913.53,-94.62 1463.5,-105.68 1298.99,-144.43"/>
<polygon fill="black" stroke="black" points="1297.9,-141.09 1289.04,-146.9 1299.59,-147.89 1297.9,-141.09"/>
</g>
<!-- n26&#45;&gt;n10 -->
<g id="edge45" class="edge">
<title>n26&#45;&gt;n10</title>
<path fill="none" stroke="black" d="M2115.4,-108.34C2106.45,-129.42 2088.17,-164.15 2059.93,-180 2004.46,-211.13 1566.88,-208.84 1467.36,-216.13"/>
<polygon fill="black" stroke="black" points="1466.82,-212.67 1457.17,-217.05 1467.44,-219.64 1466.82,-212.67"/>
</g>
<!-- n26&#45;&gt;n11 -->
<g id="edge46" class="edge">
<title>n26&#45;&gt;n11</title>
<path fill="none" stroke="black" d="M2122.65,-108.06C2122.49,-128.53 2118.79,-162.29 2097.93,-180 2066.29,-206.84 1818.12,-222.13 1673.2,-228.84"/>
<polygon fill="black" stroke="black" points="1672.78,-225.36 1662.95,-229.31 1673.1,-232.35 1672.78,-225.36"/>
</g>
<!-- n26&#45;&gt;n12 -->
<g id="edge47" class="edge">
<title>n26&#45;&gt;n12</title>
<path fill="none" stroke="black" d="M2100.7,-108.06C2088.46,-118.16 2072.96,-131.41 2059.93,-144 2044.31,-159.08 2046.58,-170.8 2026.93,-180 1952.07,-215.04 1382.03,-207.31 1260.74,-216.21"/>
<polygon fill="black" stroke="black" points="1260.09,-212.75 1250.43,-217.12 1260.7,-219.72 1260.09,-212.75"/>
</g>
</g>
</svg>
